<svg id="Layer_1" data-name="Layer 1" xmlns="http://www.w3.org/2000/svg" viewBox="0 0 391.91 489.89"><defs><style>.cls-1{fill:#fff;}</style></defs><path class="cls-1" d="M92.68,674.89V185H484.59V674.89ZM212,401c-4,.84-8.32,1.6-12.59,2.71-11.16,2.9-21.73,7.11-30.42,15-10.88,9.9-11.49,20.74-1.1,31.05a56,56,0,0,0,14.69,10.75c30,14.53,60.83,15.75,91.87,3.36,9.93-4,18.05-10.49,22.64-20.62,0-.06.3,0,.68-.05,1,5.54,1.94,11.11,2.88,16.68,1.29,7.58,1.92,15.26,5.75,22.25,5.46,10,7.73,20.85,8.11,32.18a7.62,7.62,0,0,0,1.7,4.33,39.18,39.18,0,0,0,6,5.6c10.31,7.93,22.75,8.8,35,10,8.22.83,14.94-3.64,21.75-7.47,8.55-4.8,14.35-11.36,16-21.5a84.72,84.72,0,0,1,8.43-24.54,63.77,63.77,0,0,0,4.19-12.26c3.43-12.73,6.61-25.54,10.05-38.27,1.23-4.57,2.93-9,4.52-13.85-9.78,10-17.45,15-27.57,18.4-23.45,7.82-46.87,7.49-70.18-.42-12.46-4.23-23.55-10.72-31.7-21.38a60.74,60.74,0,0,1-4-6.83c2.79,2.88,4.88,6.21,7.55,9a54.2,54.2,0,0,0,9,7.4c11,7.32,23.37,11.42,36.4,13.25,19.47,2.75,38.72,2.21,57.33-5,9.06-3.52,17.2-8.39,23-16.45,7.08-9.77,6.72-19.52-1.15-28.65-4.36-5.06-9.94-8.5-15.93-11.27a101.64,101.64,0,0,0-33.82-8.6c-18.89-1.73-37.33.06-55.13,7-.6.23-1.25.32-2.61.67,3.41-11,6.65-21.47,10.07-32.51A56.81,56.81,0,0,1,297.76,358c-21.05,7.23-42.24,7.28-63.48.82-12.05-3.68-23-9.34-31.5-18.89-1.25-1.4-2.36-2.92-4-5,.31,1.53.44,2.3.62,3.06,1.5,6.38,3.23,12.71,4.48,19.14C206.69,371.65,209.26,386.18,212,401Zm-49.55,45.42a5.05,5.05,0,0,0,.12.75c3.41,16.56,7.08,33.08,10.11,49.71,1.44,7.89,2.89,15.62,6.71,22.78,4.73,8.87,6.35,18.56,6.75,28.47.11,2.78,1,5.19,3,6.8a115,115,0,0,0,11.89,8.36c5.86,3.49,12.77,3.36,19.21,4.85,8.68,2,17.07,1.23,24.89-3.43,2.74-1.63,5.57-3.11,8.26-4.82,6.69-4.26,11.3-9.88,12.8-18a101.13,101.13,0,0,1,9.34-27.31c2-3.88,2.92-8.32,4.06-12.59,3.27-12.22,6.33-24.51,9.64-36.73,1.21-4.48,2.89-8.84,4.58-13.94-1,.92-1.44,1.3-1.84,1.76a52.23,52.23,0,0,1-16.88,12.69c-19.52,9.28-40,11.39-61.2,7.87-13.59-2.25-26.62-6.32-37.77-14.72C171.19,455.1,166.89,450.47,162.43,446.37Zm104.1-85.93c10.74-.19,19.79-1.25,28.58-3.94,10.2-3.12,19.7-7.5,26.85-15.85,8.9-10.38,8.32-22.13-1.67-31.4-5.75-5.34-12.61-8.82-20-11.33-17.53-6-35.52-7.26-53.78-4.77-11.66,1.58-22.91,4.66-33.16,10.71-5.17,3.05-10,6.59-13.09,11.82-5.45,9.22-4,13.78.88,20.31,4.38,5.88,10.16,10.08,16.56,13.48C233.5,357.82,250.48,360.6,266.53,360.44Zm64.55,1.9a7.87,7.87,0,0,0,.24-1.51c-.07-.74-.25-1.47-.39-2.2-.68.28-1.38.51-2,.83-.81.41-1.59.89-2.47,1.39-.21-1.12-.36-1.94-.5-2.76l-.83-.19-2.52,7.54-2-1.15-.27.37,2.91,2.51,3.49-5.59.24,3.05,2.11-3.24a2.51,2.51,0,0,1,.26,1.25c.15.87.37,1.73.57,2.59A15.56,15.56,0,0,0,332,364c1.5-1.21,2.94-2.52,4.4-3.79l-.13-.31Z" transform="translate(-92.68 -185)"/><path d="M212,401c-2.72-14.77-5.29-29.3-8.1-43.8-1.25-6.43-3-12.76-4.48-19.14-.18-.76-.31-1.53-.62-3.06,1.64,2,2.75,3.56,4,5,8.54,9.55,19.45,15.21,31.5,18.89,21.24,6.46,42.43,6.41,63.48-.82a56.81,56.81,0,0,0,25.61-17.1c-3.42,11-6.66,21.48-10.07,32.51,1.36-.35,2-.44,2.61-.67,17.8-6.9,36.24-8.69,55.13-7a101.64,101.64,0,0,1,33.82,8.6c6,2.77,11.57,6.21,15.93,11.27,7.87,9.13,8.23,18.88,1.15,28.65-5.83,8.06-14,12.93-23,16.45-18.61,7.24-37.86,7.78-57.33,5-13-1.83-25.36-5.93-36.4-13.25a54.2,54.2,0,0,1-9-7.4c-2.67-2.76-4.76-6.09-7.55-9a60.74,60.74,0,0,0,4,6.83c8.15,10.66,19.24,17.15,31.7,21.38,23.31,7.91,46.73,8.24,70.18.42,10.12-3.37,17.79-8.42,27.57-18.4-1.59,4.83-3.29,9.28-4.52,13.85-3.44,12.73-6.62,25.54-10.05,38.27a63.77,63.77,0,0,1-4.19,12.26,84.72,84.72,0,0,0-8.43,24.54c-1.66,10.14-7.46,16.7-16,21.5-6.81,3.83-13.53,8.3-21.75,7.47-12.21-1.24-24.65-2.11-35-10a39.18,39.18,0,0,1-6-5.6,7.62,7.62,0,0,1-1.7-4.33c-.38-11.33-2.65-22.2-8.11-32.18-3.83-7-4.46-14.67-5.75-22.25-.94-5.57-1.92-11.14-2.88-16.68-.38,0-.65,0-.68.05-4.59,10.13-12.71,16.66-22.64,20.62-31,12.39-61.83,11.17-91.87-3.36a56,56,0,0,1-14.69-10.75c-10.39-10.31-9.78-21.15,1.1-31.05,8.69-7.92,19.26-12.13,30.42-15C203.66,402.55,208,401.79,212,401Zm181.57,86.59a34.84,34.84,0,0,0,2.53-4.43c2.65-6.66,4.16-13.56,3.36-20.77-.46-4.21-2.33-5.4-6.1-3.93-6.77,2.64-13.46,5.46-20.18,8.21a5.46,5.46,0,0,0-3.68,6.07c.75,8.66-.63,17.13-2.28,25.59s-3.08,16.69-4.61,25c.75-.23,1-.58,1.07-1,2.37-10.09,4.88-20.14,7-30.28,1.3-6.14,2.38-12.39,1.14-18.71-.87-4.43-.71-4.85,3.49-6.46q9.06-3.48,18.15-6.85c2.59-1,3.19-.64,3.39,2.11.59,8.33,1.26,16.68-3.05,24.41a3.37,3.37,0,0,0-.19,1l-4.68,12.9.79.26Q391.64,494.15,393.55,487.54Zm-49.88-66.65c-3-4-5.75-7.77-8.65-11.38-1.32-1.65-3.07-2.94-4.51-4.51-4.24-4.64-4.47-10.2-.47-14.88a31.35,31.35,0,0,1,4.81-4.13c1.15-.89,2.45-1.59,3.68-2.37a23,23,0,0,0-11.77,4.23c-9.4,6.79-10.11,16-1.72,24,2.81,2.68,6.12,4.83,9.2,7.23-2.66-1.17-5.25-2.48-7.81-3.86-5.88-3.16-11.49-6.72-15.64-12.09-3.83-4.94-3.53-9.89,1.34-13.8a51.5,51.5,0,0,1,10-5.81,56.65,56.65,0,0,1,7.47-2.42c-9.36.42-18.13,2.6-24.74,9.62-4.62,4.92-4.79,11.7-.74,17.08a32.65,32.65,0,0,0,6.41,6.29c8.87,6.66,19.47,9.25,29.94,11.79,18.08,4.4,35.78,1.6,53-4.5a32.68,32.68,0,0,0,19.15-17.85c3.86-8.52-3.5-20.14-13.18-20.74,1.36,1,2.64,1.8,3.74,2.78,8.41,7.51,8.25,14.68,1.46,21.46a36.56,36.56,0,0,1-9,6.35c-6,3.09-12.49,4.6-19.13,5.49,2.43-1.06,5-1.71,7.34-2.94,3.95-2.11,8.08-4.16,11.46-7,4.41-3.74,5-10,2-13.75,1.1,6.79,0,9.48-5.51,12.33a27.26,27.26,0,0,1-7,2.36c-6.42,1.27-12.95,2.08-19.33,3.51-4.78,1.07-9.4,2.83-14.09,4.28a102.73,102.73,0,0,1,11.78-6.13c4.12-1.86,8.35-3.45,12.42-5.38,2.48-1.17,4.48-3,4.37-6.1s-2-4.83-4.56-6a13.36,13.36,0,0,0-4.07-1.1c-4.9-.56-9,1.4-12.69,4.4-1.52,1.23-3,2.55-4.85,4.19.22-1.41.38-2.19.47-3,.51-4.31-1.11-7.3-4.9-9.08-4.16-2-9.05-1.47-11.68,1.26a7.59,7.59,0,0,0-2.1,7.81,37.32,37.32,0,0,0,2.38,5.61c1.47,2.92,3.42,5.65,4.52,8.7C343.35,415.36,343.3,418.19,343.67,420.89Zm-111.33,9.23c-4.94-2.29-9.63-4.86-14.59-6.68-8.87-3.24-17.87-3.58-26.57.78-7.84,3.94-8.49,11.43-1.49,16.67,5,3.77,11,5.14,17.05,6.28,8.08,1.54,16.31,2.46,24.27,4.44,6.87,1.72,13.45,4.55,20.13,6.89-2.36-7.35.86-13.08,6.42-18,1.06-.93,2.18-1.83,3.14-2.86a47.61,47.61,0,0,0,5-5.81c3.85-5.82,2.32-11.31-4-14.21a27.83,27.83,0,0,0-21.24-.8C232.88,419.43,231.16,422.36,232.34,430.12Zm142.24-38.7c5.37.07,10.66-.16,15.33-3.3,2-1.36,3.47-3.12,3.19-5.72a5.44,5.44,0,0,0-4.26-4.92,27.9,27.9,0,0,0-9.36-.6c-3.64.49-7.14,2-10.73,2.95s-4.2.65-5.87-2.58a11.56,11.56,0,0,0-15.46-5.16c-4.19,2-5.35,6.2-2.57,9.9a16.66,16.66,0,0,0,3.8,3.65c3.16,2.19,6.15,4.46,8.12,7.89a2.39,2.39,0,0,0,2.27.59C364,391.66,369.24,391.37,374.58,391.42ZM329.46,517.1l.32-.08c-.4-5.28-.89-10.55-1.17-15.84-.6-11.31-1.06-22.62-1.67-33.93a9,9,0,0,0-1.2-4.51c-3.86-5.4-9.91-7.5-15.72-9.89a59.35,59.35,0,0,0,5.85,4c2.73,1.78,5.49,3.55,8.06,5.54a5.62,5.62,0,0,1,2,6c-3.53,16.14-.4,31.87,3,47.58A6.88,6.88,0,0,0,329.46,517.1ZM274.65,408.41l1-.42c.72-4.71,1.29-9.45,0-14.16-.62-2.32,0-3.83,2.16-4.66q9.67-3.68,19.38-7.26a21.13,21.13,0,0,1,3.29-.7l-.07-1c-1.1,0-2.32-.33-3.26.05-6.83,2.69-13.61,5.51-20.39,8.32-2.23.92-3.13,2.67-3.13,5.05,0,4.06-.15,8.13-.09,12.19A8.13,8.13,0,0,0,274.65,408.41Zm-56.52-33.73-.72,1c1.68,1.05,3.37,2.09,5,3.17,2.59,1.68,5.23,3.28,7.71,5.1,2.12,1.55,2.72,3.79,2.24,6.39-.43,2.34-.8,4.71-1,7.09a6.72,6.72,0,0,0,.76,2.38c.38-.73,1-1.43,1.09-2.18.18-2.64.07-5.31.2-8,.14-2.95-.69-5.57-3.1-7.24C226.38,379.69,222.21,377.25,218.13,374.68Z" transform="translate(-92.68 -185)"/><path d="M162.43,446.37c4.46,4.1,8.76,8.73,13.72,12.47,11.15,8.4,24.18,12.47,37.77,14.72,21.16,3.52,41.68,1.41,61.2-7.87A52.23,52.23,0,0,0,292,453c.4-.46.87-.84,1.84-1.76-1.69,5.1-3.37,9.46-4.58,13.94-3.31,12.22-6.37,24.51-9.64,36.73-1.14,4.27-2.09,8.71-4.06,12.59a101.13,101.13,0,0,0-9.34,27.31c-1.5,8.15-6.11,13.77-12.8,18-2.69,1.71-5.52,3.19-8.26,4.82-7.82,4.66-16.21,5.45-24.89,3.43-6.44-1.49-13.35-1.36-19.21-4.85a115,115,0,0,1-11.89-8.36c-2.07-1.61-2.94-4-3-6.8-.4-9.91-2-19.6-6.75-28.47-3.82-7.16-5.27-14.89-6.71-22.78-3-16.63-6.7-33.15-10.11-49.71A5.05,5.05,0,0,1,162.43,446.37Zm72.06,111.44.64.12c.28-1.33.54-2.66.85-4,2.28-9.65,4.75-19.26,6.77-29,1.28-6.14,2.16-12.41.35-18.69-.57-2,.48-3.3,2.22-4,6.78-2.61,13.58-5.15,20.38-7.71,1.7-.64,2.82-.16,2.89,1.77.3,7.84,1.53,15.78-2.23,23.25a3.34,3.34,0,0,0-.15,1.07l.89.21c1.27-4.84,2.9-9.62,3.71-14.53a39,39,0,0,0-.06-10.79c-.31-2.67-2.16-3.72-4.37-2.85-7.34,2.88-14.62,5.88-21.89,8.92a4.89,4.89,0,0,0-3.27,5.27c1.06,10.31-1.14,20.28-3.05,30.29C236.86,544.06,235.71,550.94,234.49,557.81Zm-33.33-7.66c0-1,.05-2.1,0-3.15q-1.25-22.93-2.54-45.86a8.23,8.23,0,0,0-.86-3.28c-2-3.66-11.39-9.6-16.35-10.11,2.35,1.44,4.22,2.58,6.08,3.74,2.39,1.5,4.85,2.91,7.13,4.57,2.74,2,3.72,4.6,3,8.12C194.43,519.77,197.16,535,201.16,550.15Z" transform="translate(-92.68 -185)"/><path d="M266.53,360.44c-16,.16-33-2.62-48.79-11-6.4-3.4-12.18-7.6-16.56-13.48-4.86-6.53-6.33-11.09-.88-20.31,3.1-5.23,7.92-8.77,13.09-11.82,10.25-6.05,21.5-9.13,33.16-10.71,18.26-2.49,36.25-1.23,53.78,4.77,7.35,2.51,14.21,6,20,11.33,10,9.27,10.57,21,1.67,31.4-7.15,8.35-16.65,12.73-26.85,15.85C286.32,359.19,277.27,360.25,266.53,360.44Zm-11.67-40.65c-.65.25-1.55.56-2.4,1-3.62,1.71-4.23,4-1.6,7.09a18.23,18.23,0,0,0,4.63,3.9c7.18,4.16,15,5.19,23.1,4,4.73-.68,9.09-2.23,12.61-5.68,3.83-3.75,4-9.31-.29-12.54a30.55,30.55,0,0,0-9.62-4.79A61.6,61.6,0,0,0,255,311.13c-5.64.79-11.16,2.14-15.84,5.66-5,3.72-5.92,8.68-1.8,13.26a34.58,34.58,0,0,0,10.05,7.59c11.79,5.91,24.46,7.63,37.49,6.29,7.55-.78,14.84-2.71,21-7.58,7.71-6.11,8-14.25.67-20.83C299,308.74,289.63,306,280,304.09c-1.64-.33-3.32-.43-5.33-.67,5.94,1.92,11.54,3.54,17,5.57a27,27,0,0,1,12.46,8.74c2.81,3.71,2.91,7.61-.43,10.79a25.24,25.24,0,0,1-8.52,5.62,69.79,69.79,0,0,1-47.65.08,25.82,25.82,0,0,1-8.44-5.32c-3.32-3-3.11-7.1,0-10.36a14.14,14.14,0,0,1,3.57-2.72c8.59-4.49,17.73-4.74,26.91-2.69a33.43,33.43,0,0,1,9.82,4.36c2.25,1.36,2,3.12-.25,4.28-6.93,3.51-14.29,5.28-22.07,4.3a6.26,6.26,0,0,1-4.11-2.34C252.55,323.11,254.13,321.2,254.86,319.79Zm2.27,26.91a46.77,46.77,0,0,0-4.68-2c-5.58-1.69-11.26-3.12-16.78-5-6.15-2.06-12.08-4.62-16.32-9.9-3.59-4.48-3.45-9.51.53-13.64,1.32-1.38,2.88-2.52,4.34-3.77a20,20,0,0,0-6.36,3.87c-6.27,5.83-6.18,12.84.11,18.62,4.92,4.52,10.95,6.81,17.33,8.08C242.28,344.38,249.34,345.39,257.13,346.7Z" transform="translate(-92.68 -185)"/><path d="M331.08,362.34l5.18-2.43.13.31c-1.46,1.27-2.9,2.58-4.4,3.79a15.56,15.56,0,0,1-2.14,1.22c-.2-.86-.42-1.72-.57-2.59a2.51,2.51,0,0,0-.26-1.25l-2.11,3.24-.24-3.05-3.49,5.59-2.91-2.51.27-.37,2,1.15,2.52-7.54.83.19c.14.82.29,1.64.5,2.76.88-.5,1.66-1,2.47-1.39.65-.32,1.35-.55,2-.83.14.73.32,1.46.39,2.2A7.87,7.87,0,0,1,331.08,362.34Z" transform="translate(-92.68 -185)"/><path class="cls-1" d="M343.67,420.89c-.37-2.7-.32-5.53-1.22-8-1.1-3.05-3.05-5.78-4.52-8.7a37.32,37.32,0,0,1-2.38-5.61,7.59,7.59,0,0,1,2.1-7.81c2.63-2.73,7.52-3.22,11.68-1.26,3.79,1.78,5.41,4.77,4.9,9.08-.09.78-.25,1.56-.47,3,1.89-1.64,3.33-3,4.85-4.19,3.69-3,7.79-5,12.69-4.4a13.36,13.36,0,0,1,4.07,1.1c2.52,1.17,4.46,3,4.56,6s-1.89,4.93-4.37,6.1c-4.07,1.93-8.3,3.52-12.42,5.38a102.73,102.73,0,0,0-11.78,6.13c4.69-1.45,9.31-3.21,14.09-4.28,6.38-1.43,12.91-2.24,19.33-3.51a27.26,27.26,0,0,0,7-2.36c5.53-2.85,6.61-5.54,5.51-12.33,2.93,3.77,2.39,10-2,13.75-3.38,2.87-7.51,4.92-11.46,7-2.3,1.23-4.91,1.88-7.34,2.94,6.64-.89,13.16-2.4,19.13-5.49a36.56,36.56,0,0,0,9-6.35c6.79-6.78,6.95-13.95-1.46-21.46-1.1-1-2.38-1.77-3.74-2.78,9.68.6,17,12.22,13.18,20.74a32.68,32.68,0,0,1-19.15,17.85c-17.18,6.1-34.88,8.9-53,4.5-10.47-2.54-21.07-5.13-29.94-11.79a32.65,32.65,0,0,1-6.41-6.29c-4.05-5.38-3.88-12.16.74-17.08,6.61-7,15.38-9.2,24.74-9.62a56.65,56.65,0,0,0-7.47,2.42,51.5,51.5,0,0,0-10,5.81c-4.87,3.91-5.17,8.86-1.34,13.8,4.15,5.37,9.76,8.93,15.64,12.09,2.56,1.38,5.15,2.69,7.81,3.86-3.08-2.4-6.39-4.55-9.2-7.23-8.39-8-7.68-17.23,1.72-24a23,23,0,0,1,11.77-4.23c-1.23.78-2.53,1.48-3.68,2.37a31.35,31.35,0,0,0-4.81,4.13c-4,4.68-3.77,10.24.47,14.88,1.44,1.57,3.19,2.86,4.51,4.51C337.92,413.12,340.63,416.87,343.67,420.89Z" transform="translate(-92.68 -185)"/><path class="cls-1" d="M232.34,430.12c-1.18-7.76.54-10.69,8.13-13.29a27.83,27.83,0,0,1,21.24.8c6.34,2.9,7.87,8.39,4,14.21a47.61,47.61,0,0,1-5,5.81c-1,1-2.08,1.93-3.14,2.86-5.56,4.91-8.78,10.64-6.42,18-6.68-2.34-13.26-5.17-20.13-6.89-8-2-16.19-2.9-24.27-4.44-6-1.14-12-2.51-17.05-6.28-7-5.24-6.35-12.73,1.49-16.67,8.7-4.36,17.7-4,26.57-.78C222.71,425.26,227.4,427.83,232.34,430.12Z" transform="translate(-92.68 -185)"/><path class="cls-1" d="M374.58,391.42c-5.34-.05-10.61.24-15.54,2.7a2.39,2.39,0,0,1-2.27-.59c-2-3.43-5-5.7-8.12-7.89a16.66,16.66,0,0,1-3.8-3.65c-2.78-3.7-1.62-7.88,2.57-9.9a11.56,11.56,0,0,1,15.46,5.16c1.67,3.23,2.27,3.54,5.87,2.58s7.09-2.46,10.73-2.95a27.9,27.9,0,0,1,9.36.6,5.44,5.44,0,0,1,4.26,4.92c.28,2.6-1.17,4.36-3.19,5.72C385.24,391.26,380,391.49,374.58,391.42Z" transform="translate(-92.68 -185)"/><path class="cls-1" d="M393.61,487.59a3.37,3.37,0,0,1,.19-1c4.31-7.73,3.64-16.08,3.05-24.41-.2-2.75-.8-3.08-3.39-2.11q-9.09,3.39-18.15,6.85c-4.2,1.61-4.36,2-3.49,6.46,1.24,6.32.16,12.57-1.14,18.71-2.14,10.14-4.65,20.19-7,30.28-.09.39-.32.74-1.07,1,1.53-8.34,3-16.7,4.61-25s3-16.93,2.28-25.59a5.46,5.46,0,0,1,3.68-6.07c6.72-2.75,13.41-5.57,20.18-8.21,3.77-1.47,5.64-.28,6.1,3.93.8,7.21-.71,14.11-3.36,20.77a34.84,34.84,0,0,1-2.53,4.43Z" transform="translate(-92.68 -185)"/><path class="cls-1" d="M329.46,517.1a6.88,6.88,0,0,1-.5-1.16c-3.39-15.71-6.52-31.44-3-47.58a5.62,5.62,0,0,0-2-6c-2.57-2-5.33-3.76-8.06-5.54a59.35,59.35,0,0,1-5.85-4c5.81,2.39,11.86,4.49,15.72,9.89a9,9,0,0,1,1.2,4.51c.61,11.31,1.07,22.62,1.67,33.93.28,5.29.77,10.56,1.17,15.84Z" transform="translate(-92.68 -185)"/><path class="cls-1" d="M274.65,408.41a8.13,8.13,0,0,1-1-2.6c-.06-4.06.1-8.13.09-12.19,0-2.38.9-4.13,3.13-5.05,6.78-2.81,13.56-5.63,20.39-8.32.94-.38,2.16-.05,3.26-.05l.07,1a21.13,21.13,0,0,0-3.29.7q-9.71,3.57-19.38,7.26c-2.18.83-2.78,2.34-2.16,4.66,1.25,4.71.68,9.45,0,14.16Z" transform="translate(-92.68 -185)"/><path class="cls-1" d="M218.13,374.68c4.08,2.57,8.25,5,12.22,7.75,2.41,1.67,3.24,4.29,3.1,7.24-.13,2.65,0,5.32-.2,8-.05.75-.71,1.45-1.09,2.18a6.72,6.72,0,0,1-.76-2.38c.2-2.38.57-4.75,1-7.09.48-2.6-.12-4.84-2.24-6.39-2.48-1.82-5.12-3.42-7.71-5.1-1.67-1.08-3.36-2.12-5-3.17Z" transform="translate(-92.68 -185)"/><path class="cls-1" d="M393.55,487.54q-1.92,6.61-3.83,13.21l-.79-.26,4.68-12.9Z" transform="translate(-92.68 -185)"/><path class="cls-1" d="M234.49,557.81c1.22-6.87,2.37-13.75,3.68-20.6,1.91-10,4.11-20,3.05-30.29a4.89,4.89,0,0,1,3.27-5.27c7.27-3,14.55-6,21.89-8.92,2.21-.87,4.06.18,4.37,2.85a39,39,0,0,1,.06,10.79c-.81,4.91-2.44,9.69-3.71,14.53l-.89-.21a3.34,3.34,0,0,1,.15-1.07c3.76-7.47,2.53-15.41,2.23-23.25-.07-1.93-1.19-2.41-2.89-1.77-6.8,2.56-13.6,5.1-20.38,7.71-1.74.67-2.79,2-2.22,4,1.81,6.28.93,12.55-.35,18.69-2,9.71-4.49,19.32-6.77,29-.31,1.33-.57,2.66-.85,4Z" transform="translate(-92.68 -185)"/><path class="cls-1" d="M201.16,550.15c-4-15.17-6.73-30.38-3.55-46,.72-3.52-.26-6.13-3-8.12-2.28-1.66-4.74-3.07-7.13-4.57-1.86-1.16-3.73-2.3-6.08-3.74,5,.51,14.39,6.45,16.35,10.11a8.23,8.23,0,0,1,.86,3.28q1.32,22.93,2.54,45.86C201.21,548.05,201.16,549.1,201.16,550.15Z" transform="translate(-92.68 -185)"/><path class="cls-1" d="M254.86,319.79c-.73,1.41-2.31,3.32-1.9,3.94a6.26,6.26,0,0,0,4.11,2.34c7.78,1,15.14-.79,22.07-4.3,2.29-1.16,2.5-2.92.25-4.28a33.43,33.43,0,0,0-9.82-4.36c-9.18-2.05-18.32-1.8-26.91,2.69a14.14,14.14,0,0,0-3.57,2.72c-3.13,3.26-3.34,7.32,0,10.36a25.82,25.82,0,0,0,8.44,5.32,69.79,69.79,0,0,0,47.65-.08,25.24,25.24,0,0,0,8.52-5.62c3.34-3.18,3.24-7.08.43-10.79A27,27,0,0,0,291.65,309c-5.44-2-11-3.65-17-5.57,2,.24,3.69.34,5.33.67,9.63,2,19,4.65,26.49,11.43,7.31,6.58,7,14.72-.67,20.83-6.12,4.87-13.41,6.8-21,7.58-13,1.34-25.7-.38-37.49-6.29a34.58,34.58,0,0,1-10.05-7.59c-4.12-4.58-3.15-9.54,1.8-13.26,4.68-3.52,10.2-4.87,15.84-5.66a61.6,61.6,0,0,1,26.33,1.61,30.55,30.55,0,0,1,9.62,4.79c4.27,3.23,4.12,8.79.29,12.54-3.52,3.45-7.88,5-12.61,5.68-8.13,1.18-15.92.15-23.1-4a18.23,18.23,0,0,1-4.63-3.9c-2.63-3.09-2-5.38,1.6-7.09C253.31,320.35,254.21,320,254.86,319.79Z" transform="translate(-92.68 -185)"/><path class="cls-1" d="M257.13,346.7c-7.79-1.31-14.85-2.32-21.83-3.72-6.38-1.27-12.41-3.56-17.33-8.08-6.29-5.78-6.38-12.79-.11-18.62a20,20,0,0,1,6.36-3.87c-1.46,1.25-3,2.39-4.34,3.77-4,4.13-4.12,9.16-.53,13.64,4.24,5.28,10.17,7.84,16.32,9.9,5.52,1.84,11.2,3.27,16.78,5A46.77,46.77,0,0,1,257.13,346.7Z" transform="translate(-92.68 -185)"/></svg>